<!DOCTYPE svg PUBLIC "-//W3C//DTD SVG 1.1//EN"
    "http://www.w3.org/Graphics/SVG/1.1/DTD/svg11.dtd" >
<svg contentScriptType="text/ecmascript" width="800px"
     xmlns:xlink="http://www.w3.org/1999/xlink" zoomAndPan="magnify"
     style="height: 600px; display: block;" contentStyleType="text/css"
     id="chart_svg" height="600px" preserveAspectRatio="xMidYMid meet"
     xmlns="http://www.w3.org/2000/svg" version="1.0">
    <defs>
        <g>
            <g>
                <clipPath id="clip-1">
                    <rect x="41.11767578125" width="754.88232421875" y="8"
                          height="522"/>
                </clipPath>
            </g>
        </g>
    </defs>
    <g>
        <g>
            <rect fill="rgb(255,255,255)" x="0" width="800" y="0" height="600"/>
            <rect fill="rgb(255,255,255)" x="41.11767578125"
                  width="754.88232421875" y="8" height="522"/>
            <line transform="matrix(1.000,0.000,0.000,1.000,0.000,0.000)"
                  x1="49.000" x2="49.000" y1="8.000" y2="530.000"
                  style="stroke-width: 1; stroke-linecap: round; stroke-linejoin: round; "
                  stroke="rgb(230,230,230)"/>
            <line transform="matrix(1.000,0.000,0.000,1.000,0.000,0.000)"
                  x1="49.337" x2="49.337" y1="530.000" y2="532.000"
                  style="stroke-width: 0.5; stroke-linecap: round; stroke-linejoin: round; "
                  stroke="rgb(100,100,100)"/>
            <text x="49.337" fill="rgb(0,0,0)" y="545.000"
                  style="font-family: sans-serif; font-weight: normal; font-style: normal; font-size: 11px"
                  transform="matrix(1.000,0.000,0.000,1.000,0.000,0.000)"
                  text-anchor="middle">
                1740
            </text>
            <line transform="matrix(1.000,0.000,0.000,1.000,0.000,0.000)"
                  x1="102.000" x2="102.000" y1="8.000" y2="530.000"
                  style="stroke-width: 1; stroke-linecap: round; stroke-linejoin: round; "
                  stroke="rgb(230,230,230)"/>
            <line transform="matrix(1.000,0.000,0.000,1.000,0.000,0.000)"
                  x1="101.524" x2="101.524" y1="530.000" y2="532.000"
                  style="stroke-width: 0.5; stroke-linecap: round; stroke-linejoin: round; "
                  stroke="rgb(100,100,100)"/>
            <text x="101.524" fill="rgb(0,0,0)" y="545.000"
                  style="font-family: sans-serif; font-weight: normal; font-style: normal; font-size: 11px"
                  transform="matrix(1.000,0.000,0.000,1.000,0.000,0.000)"
                  text-anchor="middle">
                1760
            </text>
            <line transform="matrix(1.000,0.000,0.000,1.000,0.000,0.000)"
                  x1="154.000" x2="154.000" y1="8.000" y2="530.000"
                  style="stroke-width: 1; stroke-linecap: round; stroke-linejoin: round; "
                  stroke="rgb(230,230,230)"/>
            <line transform="matrix(1.000,0.000,0.000,1.000,0.000,0.000)"
                  x1="153.711" x2="153.711" y1="530.000" y2="532.000"
                  style="stroke-width: 0.5; stroke-linecap: round; stroke-linejoin: round; "
                  stroke="rgb(100,100,100)"/>
            <text x="153.711" fill="rgb(0,0,0)" y="545.000"
                  style="font-family: sans-serif; font-weight: normal; font-style: normal; font-size: 11px"
                  transform="matrix(1.000,0.000,0.000,1.000,0.000,0.000)"
                  text-anchor="middle">
                1780
            </text>
            <line transform="matrix(1.000,0.000,0.000,1.000,0.000,0.000)"
                  x1="206.000" x2="206.000" y1="8.000" y2="530.000"
                  style="stroke-width: 1; stroke-linecap: round; stroke-linejoin: round; "
                  stroke="rgb(230,230,230)"/>
            <line transform="matrix(1.000,0.000,0.000,1.000,0.000,0.000)"
                  x1="205.898" x2="205.898" y1="530.000" y2="532.000"
                  style="stroke-width: 0.5; stroke-linecap: round; stroke-linejoin: round; "
                  stroke="rgb(100,100,100)"/>
            <text x="205.898" fill="rgb(0,0,0)" y="545.000"
                  style="font-family: sans-serif; font-weight: normal; font-style: normal; font-size: 11px"
                  transform="matrix(1.000,0.000,0.000,1.000,0.000,0.000)"
                  text-anchor="middle">
                1800
            </text>
            <line transform="matrix(1.000,0.000,0.000,1.000,0.000,0.000)"
                  x1="258.000" x2="258.000" y1="8.000" y2="530.000"
                  style="stroke-width: 1; stroke-linecap: round; stroke-linejoin: round; "
                  stroke="rgb(230,230,230)"/>
            <line transform="matrix(1.000,0.000,0.000,1.000,0.000,0.000)"
                  x1="258.084" x2="258.084" y1="530.000" y2="532.000"
                  style="stroke-width: 0.5; stroke-linecap: round; stroke-linejoin: round; "
                  stroke="rgb(100,100,100)"/>
            <text x="258.084" fill="rgb(0,0,0)" y="545.000"
                  style="font-family: sans-serif; font-weight: normal; font-style: normal; font-size: 11px"
                  transform="matrix(1.000,0.000,0.000,1.000,0.000,0.000)"
                  text-anchor="middle">
                1820
            </text>
            <line transform="matrix(1.000,0.000,0.000,1.000,0.000,0.000)"
                  x1="310.000" x2="310.000" y1="8.000" y2="530.000"
                  style="stroke-width: 1; stroke-linecap: round; stroke-linejoin: round; "
                  stroke="rgb(230,230,230)"/>
            <line transform="matrix(1.000,0.000,0.000,1.000,0.000,0.000)"
                  x1="310.271" x2="310.271" y1="530.000" y2="532.000"
                  style="stroke-width: 0.5; stroke-linecap: round; stroke-linejoin: round; "
                  stroke="rgb(100,100,100)"/>
            <text x="310.271" fill="rgb(0,0,0)" y="545.000"
                  style="font-family: sans-serif; font-weight: normal; font-style: normal; font-size: 11px"
                  transform="matrix(1.000,0.000,0.000,1.000,0.000,0.000)"
                  text-anchor="middle">
                1840
            </text>
            <line transform="matrix(1.000,0.000,0.000,1.000,0.000,0.000)"
                  x1="362.000" x2="362.000" y1="8.000" y2="530.000"
                  style="stroke-width: 1; stroke-linecap: round; stroke-linejoin: round; "
                  stroke="rgb(230,230,230)"/>
            <line transform="matrix(1.000,0.000,0.000,1.000,0.000,0.000)"
                  x1="362.458" x2="362.458" y1="530.000" y2="532.000"
                  style="stroke-width: 0.5; stroke-linecap: round; stroke-linejoin: round; "
                  stroke="rgb(100,100,100)"/>
            <text x="362.458" fill="rgb(0,0,0)" y="545.000"
                  style="font-family: sans-serif; font-weight: normal; font-style: normal; font-size: 11px"
                  transform="matrix(1.000,0.000,0.000,1.000,0.000,0.000)"
                  text-anchor="middle">
                1860
            </text>
            <line transform="matrix(1.000,0.000,0.000,1.000,0.000,0.000)"
                  x1="415.000" x2="415.000" y1="8.000" y2="530.000"
                  style="stroke-width: 1; stroke-linecap: round; stroke-linejoin: round; "
                  stroke="rgb(230,230,230)"/>
            <line transform="matrix(1.000,0.000,0.000,1.000,0.000,0.000)"
                  x1="414.645" x2="414.645" y1="530.000" y2="532.000"
                  style="stroke-width: 0.5; stroke-linecap: round; stroke-linejoin: round; "
                  stroke="rgb(100,100,100)"/>
            <text x="414.645" fill="rgb(0,0,0)" y="545.000"
                  style="font-family: sans-serif; font-weight: normal; font-style: normal; font-size: 11px"
                  transform="matrix(1.000,0.000,0.000,1.000,0.000,0.000)"
                  text-anchor="middle">
                1880
            </text>
            <line transform="matrix(1.000,0.000,0.000,1.000,0.000,0.000)"
                  x1="467.000" x2="467.000" y1="8.000" y2="530.000"
                  style="stroke-width: 1; stroke-linecap: round; stroke-linejoin: round; "
                  stroke="rgb(230,230,230)"/>
            <line transform="matrix(1.000,0.000,0.000,1.000,0.000,0.000)"
                  x1="466.832" x2="466.832" y1="530.000" y2="532.000"
                  style="stroke-width: 0.5; stroke-linecap: round; stroke-linejoin: round; "
                  stroke="rgb(100,100,100)"/>
            <text x="466.832" fill="rgb(0,0,0)" y="545.000"
                  style="font-family: sans-serif; font-weight: normal; font-style: normal; font-size: 11px"
                  transform="matrix(1.000,0.000,0.000,1.000,0.000,0.000)"
                  text-anchor="middle">
                1900
            </text>
            <line transform="matrix(1.000,0.000,0.000,1.000,0.000,0.000)"
                  x1="519.000" x2="519.000" y1="8.000" y2="530.000"
                  style="stroke-width: 1; stroke-linecap: round; stroke-linejoin: round; "
                  stroke="rgb(230,230,230)"/>
            <line transform="matrix(1.000,0.000,0.000,1.000,0.000,0.000)"
                  x1="519.018" x2="519.018" y1="530.000" y2="532.000"
                  style="stroke-width: 0.5; stroke-linecap: round; stroke-linejoin: round; "
                  stroke="rgb(100,100,100)"/>
            <text x="519.018" fill="rgb(0,0,0)" y="545.000"
                  style="font-family: sans-serif; font-weight: normal; font-style: normal; font-size: 11px"
                  transform="matrix(1.000,0.000,0.000,1.000,0.000,0.000)"
                  text-anchor="middle">
                1920
            </text>
            <line transform="matrix(1.000,0.000,0.000,1.000,0.000,0.000)"
                  x1="571.000" x2="571.000" y1="8.000" y2="530.000"
                  style="stroke-width: 1; stroke-linecap: round; stroke-linejoin: round; "
                  stroke="rgb(230,230,230)"/>
            <line transform="matrix(1.000,0.000,0.000,1.000,0.000,0.000)"
                  x1="571.205" x2="571.205" y1="530.000" y2="532.000"
                  style="stroke-width: 0.5; stroke-linecap: round; stroke-linejoin: round; "
                  stroke="rgb(100,100,100)"/>
            <text x="571.205" fill="rgb(0,0,0)" y="545.000"
                  style="font-family: sans-serif; font-weight: normal; font-style: normal; font-size: 11px"
                  transform="matrix(1.000,0.000,0.000,1.000,0.000,0.000)"
                  text-anchor="middle">
                1940
            </text>
            <line transform="matrix(1.000,0.000,0.000,1.000,0.000,0.000)"
                  x1="623.000" x2="623.000" y1="8.000" y2="530.000"
                  style="stroke-width: 1; stroke-linecap: round; stroke-linejoin: round; "
                  stroke="rgb(230,230,230)"/>
            <line transform="matrix(1.000,0.000,0.000,1.000,0.000,0.000)"
                  x1="623.392" x2="623.392" y1="530.000" y2="532.000"
                  style="stroke-width: 0.5; stroke-linecap: round; stroke-linejoin: round; "
                  stroke="rgb(100,100,100)"/>
            <text x="623.392" fill="rgb(0,0,0)" y="545.000"
                  style="font-family: sans-serif; font-weight: normal; font-style: normal; font-size: 11px"
                  transform="matrix(1.000,0.000,0.000,1.000,0.000,0.000)"
                  text-anchor="middle">
                1960
            </text>
            <line transform="matrix(1.000,0.000,0.000,1.000,0.000,0.000)"
                  x1="676.000" x2="676.000" y1="8.000" y2="530.000"
                  style="stroke-width: 1; stroke-linecap: round; stroke-linejoin: round; "
                  stroke="rgb(230,230,230)"/>
            <line transform="matrix(1.000,0.000,0.000,1.000,0.000,0.000)"
                  x1="675.579" x2="675.579" y1="530.000" y2="532.000"
                  style="stroke-width: 0.5; stroke-linecap: round; stroke-linejoin: round; "
                  stroke="rgb(100,100,100)"/>
            <text x="675.579" fill="rgb(0,0,0)" y="545.000"
                  style="font-family: sans-serif; font-weight: normal; font-style: normal; font-size: 11px"
                  transform="matrix(1.000,0.000,0.000,1.000,0.000,0.000)"
                  text-anchor="middle">
                1980
            </text>
            <line transform="matrix(1.000,0.000,0.000,1.000,0.000,0.000)"
                  x1="728.000" x2="728.000" y1="8.000" y2="530.000"
                  style="stroke-width: 1; stroke-linecap: round; stroke-linejoin: round; "
                  stroke="rgb(230,230,230)"/>
            <line transform="matrix(1.000,0.000,0.000,1.000,0.000,0.000)"
                  x1="727.766" x2="727.766" y1="530.000" y2="532.000"
                  style="stroke-width: 0.5; stroke-linecap: round; stroke-linejoin: round; "
                  stroke="rgb(100,100,100)"/>
            <text x="727.766" fill="rgb(0,0,0)" y="545.000"
                  style="font-family: sans-serif; font-weight: normal; font-style: normal; font-size: 11px"
                  transform="matrix(1.000,0.000,0.000,1.000,0.000,0.000)"
                  text-anchor="middle">
                2000
            </text>
            <line transform="matrix(1.000,0.000,0.000,1.000,0.000,0.000)"
                  x1="780.000" x2="780.000" y1="8.000" y2="530.000"
                  style="stroke-width: 1; stroke-linecap: round; stroke-linejoin: round; "
                  stroke="rgb(230,230,230)"/>
            <line transform="matrix(1.000,0.000,0.000,1.000,0.000,0.000)"
                  x1="779.953" x2="779.953" y1="530.000" y2="532.000"
                  style="stroke-width: 0.5; stroke-linecap: round; stroke-linejoin: round; "
                  stroke="rgb(100,100,100)"/>
            <text x="779.953" fill="rgb(0,0,0)" y="545.000"
                  style="font-family: sans-serif; font-weight: normal; font-style: normal; font-size: 11px"
                  transform="matrix(1.000,0.000,0.000,1.000,0.000,0.000)"
                  text-anchor="middle">
                2020
            </text>
            <line transform="matrix(1.000,0.000,0.000,1.000,0.000,0.000)"
                  x1="41.118" x2="796.000" y1="530.000" y2="530.000"
                  style="stroke-width: 0.5; stroke-linecap: round; stroke-linejoin: round; "
                  stroke="rgb(100,100,100)"/>
            <text x="418.559" fill="rgb(0,0,0)" y="561.000"
                  style="font-family: sans-serif; font-weight: bold; font-style: normal; font-size: 12px"
                  transform="matrix(1.000,0.000,0.000,1.000,0.000,0.000)"
                  text-anchor="middle">
                Year
            </text>
            <line transform="matrix(1.000,0.000,0.000,1.000,0.000,0.000)"
                  x1="41.118" x2="796.000" y1="511.000" y2="511.000"
                  style="stroke-width: 1; stroke-linecap: round; stroke-linejoin: round; "
                  stroke="rgb(230,230,230)"/>
            <line transform="matrix(1.000,0.000,0.000,1.000,0.000,0.000)"
                  x1="39.118" x2="41.118" y1="511.108" y2="511.108"
                  style="stroke-width: 0.5; stroke-linecap: round; stroke-linejoin: round; "
                  stroke="rgb(100,100,100)"/>
            <text x="37.118" fill="rgb(0,0,0)" y="516.608"
                  style="font-family: sans-serif; font-weight: normal; font-style: normal; font-size: 11px"
                  transform="matrix(1.000,0.000,0.000,1.000,0.000,0.000)"
                  text-anchor="end">
                3
            </text>
            <line transform="matrix(1.000,0.000,0.000,1.000,0.000,0.000)"
                  x1="41.118" x2="796.000" y1="479.000" y2="479.000"
                  style="stroke-width: 1; stroke-linecap: round; stroke-linejoin: round; "
                  stroke="rgb(230,230,230)"/>
            <line transform="matrix(1.000,0.000,0.000,1.000,0.000,0.000)"
                  x1="39.118" x2="41.118" y1="478.870" y2="478.870"
                  style="stroke-width: 0.5; stroke-linecap: round; stroke-linejoin: round; "
                  stroke="rgb(100,100,100)"/>
            <text x="37.118" fill="rgb(0,0,0)" y="484.370"
                  style="font-family: sans-serif; font-weight: normal; font-style: normal; font-size: 11px"
                  transform="matrix(1.000,0.000,0.000,1.000,0.000,0.000)"
                  text-anchor="end">
                4
            </text>
            <line transform="matrix(1.000,0.000,0.000,1.000,0.000,0.000)"
                  x1="41.118" x2="796.000" y1="447.000" y2="447.000"
                  style="stroke-width: 1; stroke-linecap: round; stroke-linejoin: round; "
                  stroke="rgb(230,230,230)"/>
            <line transform="matrix(1.000,0.000,0.000,1.000,0.000,0.000)"
                  x1="39.118" x2="41.118" y1="446.632" y2="446.632"
                  style="stroke-width: 0.5; stroke-linecap: round; stroke-linejoin: round; "
                  stroke="rgb(100,100,100)"/>
            <text x="37.118" fill="rgb(0,0,0)" y="452.132"
                  style="font-family: sans-serif; font-weight: normal; font-style: normal; font-size: 11px"
                  transform="matrix(1.000,0.000,0.000,1.000,0.000,0.000)"
                  text-anchor="end">
                5
            </text>
            <line transform="matrix(1.000,0.000,0.000,1.000,0.000,0.000)"
                  x1="41.118" x2="796.000" y1="414.000" y2="414.000"
                  style="stroke-width: 1; stroke-linecap: round; stroke-linejoin: round; "
                  stroke="rgb(230,230,230)"/>
            <line transform="matrix(1.000,0.000,0.000,1.000,0.000,0.000)"
                  x1="39.118" x2="41.118" y1="414.394" y2="414.394"
                  style="stroke-width: 0.5; stroke-linecap: round; stroke-linejoin: round; "
                  stroke="rgb(100,100,100)"/>
            <text x="37.118" fill="rgb(0,0,0)" y="419.894"
                  style="font-family: sans-serif; font-weight: normal; font-style: normal; font-size: 11px"
                  transform="matrix(1.000,0.000,0.000,1.000,0.000,0.000)"
                  text-anchor="end">
                6
            </text>
            <line transform="matrix(1.000,0.000,0.000,1.000,0.000,0.000)"
                  x1="41.118" x2="796.000" y1="382.000" y2="382.000"
                  style="stroke-width: 1; stroke-linecap: round; stroke-linejoin: round; "
                  stroke="rgb(230,230,230)"/>
            <line transform="matrix(1.000,0.000,0.000,1.000,0.000,0.000)"
                  x1="39.118" x2="41.118" y1="382.156" y2="382.156"
                  style="stroke-width: 0.5; stroke-linecap: round; stroke-linejoin: round; "
                  stroke="rgb(100,100,100)"/>
            <text x="37.118" fill="rgb(0,0,0)" y="387.656"
                  style="font-family: sans-serif; font-weight: normal; font-style: normal; font-size: 11px"
                  transform="matrix(1.000,0.000,0.000,1.000,0.000,0.000)"
                  text-anchor="end">
                7
            </text>
            <line transform="matrix(1.000,0.000,0.000,1.000,0.000,0.000)"
                  x1="41.118" x2="796.000" y1="350.000" y2="350.000"
                  style="stroke-width: 1; stroke-linecap: round; stroke-linejoin: round; "
                  stroke="rgb(230,230,230)"/>
            <line transform="matrix(1.000,0.000,0.000,1.000,0.000,0.000)"
                  x1="39.118" x2="41.118" y1="349.918" y2="349.918"
                  style="stroke-width: 0.5; stroke-linecap: round; stroke-linejoin: round; "
                  stroke="rgb(100,100,100)"/>
            <text x="37.118" fill="rgb(0,0,0)" y="355.418"
                  style="font-family: sans-serif; font-weight: normal; font-style: normal; font-size: 11px"
                  transform="matrix(1.000,0.000,0.000,1.000,0.000,0.000)"
                  text-anchor="end">
                8
            </text>
            <line transform="matrix(1.000,0.000,0.000,1.000,0.000,0.000)"
                  x1="41.118" x2="796.000" y1="318.000" y2="318.000"
                  style="stroke-width: 1; stroke-linecap: round; stroke-linejoin: round; "
                  stroke="rgb(230,230,230)"/>
            <line transform="matrix(1.000,0.000,0.000,1.000,0.000,0.000)"
                  x1="39.118" x2="41.118" y1="317.680" y2="317.680"
                  style="stroke-width: 0.5; stroke-linecap: round; stroke-linejoin: round; "
                  stroke="rgb(100,100,100)"/>
            <text x="37.118" fill="rgb(0,0,0)" y="323.180"
                  style="font-family: sans-serif; font-weight: normal; font-style: normal; font-size: 11px"
                  transform="matrix(1.000,0.000,0.000,1.000,0.000,0.000)"
                  text-anchor="end">
                9
            </text>
            <line transform="matrix(1.000,0.000,0.000,1.000,0.000,0.000)"
                  x1="41.118" x2="796.000" y1="285.000" y2="285.000"
                  style="stroke-width: 1; stroke-linecap: round; stroke-linejoin: round; "
                  stroke="rgb(230,230,230)"/>
            <line transform="matrix(1.000,0.000,0.000,1.000,0.000,0.000)"
                  x1="39.118" x2="41.118" y1="285.441" y2="285.441"
                  style="stroke-width: 0.5; stroke-linecap: round; stroke-linejoin: round; "
                  stroke="rgb(100,100,100)"/>
            <text x="37.118" fill="rgb(0,0,0)" y="290.941"
                  style="font-family: sans-serif; font-weight: normal; font-style: normal; font-size: 11px"
                  transform="matrix(1.000,0.000,0.000,1.000,0.000,0.000)"
                  text-anchor="end">
                10
            </text>
            <line transform="matrix(1.000,0.000,0.000,1.000,0.000,0.000)"
                  x1="41.118" x2="796.000" y1="253.000" y2="253.000"
                  style="stroke-width: 1; stroke-linecap: round; stroke-linejoin: round; "
                  stroke="rgb(230,230,230)"/>
            <line transform="matrix(1.000,0.000,0.000,1.000,0.000,0.000)"
                  x1="39.118" x2="41.118" y1="253.203" y2="253.203"
                  style="stroke-width: 0.5; stroke-linecap: round; stroke-linejoin: round; "
                  stroke="rgb(100,100,100)"/>
            <text x="37.118" fill="rgb(0,0,0)" y="258.703"
                  style="font-family: sans-serif; font-weight: normal; font-style: normal; font-size: 11px"
                  transform="matrix(1.000,0.000,0.000,1.000,0.000,0.000)"
                  text-anchor="end">
                11
            </text>
            <line transform="matrix(1.000,0.000,0.000,1.000,0.000,0.000)"
                  x1="41.118" x2="796.000" y1="221.000" y2="221.000"
                  style="stroke-width: 1; stroke-linecap: round; stroke-linejoin: round; "
                  stroke="rgb(230,230,230)"/>
            <line transform="matrix(1.000,0.000,0.000,1.000,0.000,0.000)"
                  x1="39.118" x2="41.118" y1="220.965" y2="220.965"
                  style="stroke-width: 0.5; stroke-linecap: round; stroke-linejoin: round; "
                  stroke="rgb(100,100,100)"/>
            <text x="37.118" fill="rgb(0,0,0)" y="226.465"
                  style="font-family: sans-serif; font-weight: normal; font-style: normal; font-size: 11px"
                  transform="matrix(1.000,0.000,0.000,1.000,0.000,0.000)"
                  text-anchor="end">
                12
            </text>
            <line transform="matrix(1.000,0.000,0.000,1.000,0.000,0.000)"
                  x1="41.118" x2="796.000" y1="189.000" y2="189.000"
                  style="stroke-width: 1; stroke-linecap: round; stroke-linejoin: round; "
                  stroke="rgb(230,230,230)"/>
            <line transform="matrix(1.000,0.000,0.000,1.000,0.000,0.000)"
                  x1="39.118" x2="41.118" y1="188.727" y2="188.727"
                  style="stroke-width: 0.5; stroke-linecap: round; stroke-linejoin: round; "
                  stroke="rgb(100,100,100)"/>
            <text x="37.118" fill="rgb(0,0,0)" y="194.227"
                  style="font-family: sans-serif; font-weight: normal; font-style: normal; font-size: 11px"
                  transform="matrix(1.000,0.000,0.000,1.000,0.000,0.000)"
                  text-anchor="end">
                13
            </text>
            <line transform="matrix(1.000,0.000,0.000,1.000,0.000,0.000)"
                  x1="41.118" x2="796.000" y1="156.000" y2="156.000"
                  style="stroke-width: 1; stroke-linecap: round; stroke-linejoin: round; "
                  stroke="rgb(230,230,230)"/>
            <line transform="matrix(1.000,0.000,0.000,1.000,0.000,0.000)"
                  x1="39.118" x2="41.118" y1="156.489" y2="156.489"
                  style="stroke-width: 0.5; stroke-linecap: round; stroke-linejoin: round; "
                  stroke="rgb(100,100,100)"/>
            <text x="37.118" fill="rgb(0,0,0)" y="161.989"
                  style="font-family: sans-serif; font-weight: normal; font-style: normal; font-size: 11px"
                  transform="matrix(1.000,0.000,0.000,1.000,0.000,0.000)"
                  text-anchor="end">
                14
            </text>
            <line transform="matrix(1.000,0.000,0.000,1.000,0.000,0.000)"
                  x1="41.118" x2="796.000" y1="124.000" y2="124.000"
                  style="stroke-width: 1; stroke-linecap: round; stroke-linejoin: round; "
                  stroke="rgb(230,230,230)"/>
            <line transform="matrix(1.000,0.000,0.000,1.000,0.000,0.000)"
                  x1="39.118" x2="41.118" y1="124.251" y2="124.251"
                  style="stroke-width: 0.5; stroke-linecap: round; stroke-linejoin: round; "
                  stroke="rgb(100,100,100)"/>
            <text x="37.118" fill="rgb(0,0,0)" y="129.751"
                  style="font-family: sans-serif; font-weight: normal; font-style: normal; font-size: 11px"
                  transform="matrix(1.000,0.000,0.000,1.000,0.000,0.000)"
                  text-anchor="end">
                15
            </text>
            <line transform="matrix(1.000,0.000,0.000,1.000,0.000,0.000)"
                  x1="41.118" x2="796.000" y1="92.000" y2="92.000"
                  style="stroke-width: 1; stroke-linecap: round; stroke-linejoin: round; "
                  stroke="rgb(230,230,230)"/>
            <line transform="matrix(1.000,0.000,0.000,1.000,0.000,0.000)"
                  x1="39.118" x2="41.118" y1="92.013" y2="92.013"
                  style="stroke-width: 0.5; stroke-linecap: round; stroke-linejoin: round; "
                  stroke="rgb(100,100,100)"/>
            <text x="37.118" fill="rgb(0,0,0)" y="97.513"
                  style="font-family: sans-serif; font-weight: normal; font-style: normal; font-size: 11px"
                  transform="matrix(1.000,0.000,0.000,1.000,0.000,0.000)"
                  text-anchor="end">
                16
            </text>
            <line transform="matrix(1.000,0.000,0.000,1.000,0.000,0.000)"
                  x1="41.118" x2="796.000" y1="60.000" y2="60.000"
                  style="stroke-width: 1; stroke-linecap: round; stroke-linejoin: round; "
                  stroke="rgb(230,230,230)"/>
            <line transform="matrix(1.000,0.000,0.000,1.000,0.000,0.000)"
                  x1="39.118" x2="41.118" y1="59.774" y2="59.774"
                  style="stroke-width: 0.5; stroke-linecap: round; stroke-linejoin: round; "
                  stroke="rgb(100,100,100)"/>
            <text x="37.118" fill="rgb(0,0,0)" y="65.274"
                  style="font-family: sans-serif; font-weight: normal; font-style: normal; font-size: 11px"
                  transform="matrix(1.000,0.000,0.000,1.000,0.000,0.000)"
                  text-anchor="end">
                17
            </text>
            <line transform="matrix(1.000,0.000,0.000,1.000,0.000,0.000)"
                  x1="41.118" x2="796.000" y1="28.000" y2="28.000"
                  style="stroke-width: 1; stroke-linecap: round; stroke-linejoin: round; "
                  stroke="rgb(230,230,230)"/>
            <line transform="matrix(1.000,0.000,0.000,1.000,0.000,0.000)"
                  x1="39.118" x2="41.118" y1="27.536" y2="27.536"
                  style="stroke-width: 0.5; stroke-linecap: round; stroke-linejoin: round; "
                  stroke="rgb(100,100,100)"/>
            <text x="37.118" fill="rgb(0,0,0)" y="33.036"
                  style="font-family: sans-serif; font-weight: normal; font-style: normal; font-size: 11px"
                  transform="matrix(1.000,0.000,0.000,1.000,0.000,0.000)"
                  text-anchor="end">
                18
            </text>
            <line transform="matrix(1.000,0.000,0.000,1.000,0.000,0.000)"
                  x1="41.118" x2="41.118" y1="8.000" y2="530.000"
                  style="stroke-width: 0.5; stroke-linecap: round; stroke-linejoin: round; "
                  stroke="rgb(100,100,100)"/>
            <text x="0.000" fill="rgb(0,0,0)" y="0.000"
                  style="font-family: sans-serif; font-weight: bold; font-style: normal; font-size: 12px"
                  transform="matrix(0.000,-1.000,1.000,0.000,20.000,269.000)"
                  text-anchor="middle">
                Temerature
            </text>
            <g class="dataArea" clip-path="url(#clip-1)">
                <rect fill="rgb(0, 0, 0)" x="41.11767578125"
                      width="754.88232421875" y="8" height="522"
                      fill-opacity="0"/>
                <path fill="none"
                      d="M 75.431 204.524L 78.040 179.700L 80.649 432.125L 83.259 223.867L 85.868 213.873L 88.477 312.844L 91.087 212.583L 93.696 241.598L 96.305 269.967L 98.915 239.341L 101.524 282.218L 104.133 203.234L 106.743 223.544L 109.352 295.113L 111.961 223.544L 114.571 240.630L 117.180 206.458L 119.789 254.170L 122.399 256.427L 125.008 236.439L 127.617 240.630L 130.227 199.688L 132.836 218.708L 135.445 207.748L 138.055 224.511L 140.664 199.688L 143.273 234.505L 145.883 245.789L 148.492 312.521L 151.101 506.273L 156.320 216.452L 158.929 235.472L 161.539 245.466L 164.148 255.460L 166.757 255.138L 169.367 238.696L 171.976 238.696L 174.585 215.807L 177.195 226.123L 179.804 227.735L 182.413 52.843L 185.023 101.845L 187.632 89.595L 190.242 83.792L 192.851 93.463L 195.460 94.592L 198.070 94.753L 200.679 76.377L 203.288 84.437L 205.898 85.887L 208.507 74.282L 211.116 67.512L 213.726 69.285L 216.335 77.989L 218.944 74.604L 221.554 88.305L 224.163 92.335L 226.772 98.783L 229.382 121.188L 231.991 113.451L 234.600 110.711L 237.210 136.179L 239.819 109.744L 242.428 114.096L 245.038 122.800L 247.647 136.662L 250.256 135.051L 252.866 114.902L 255.475 111.033L 258.084 104.908L 260.694 116.836L 263.303 91.690L 265.912 103.941L 268.522 85.404L 271.131 82.502L 273.740 82.502L 276.350 75.571L 278.959 68.156L 281.568 100.556L 284.178 73.798L 286.787 114.579L 289.396 108.293L 292.006 95.398L 294.615 95.236L 297.224 115.385L 299.834 123.928L 302.443 116.514L 305.053 112.967L 307.662 104.585L 310.271 100.233L 312.881 100.395L 315.490 93.302L 318.099 109.421L 320.709 98.460L 323.318 90.723L 325.927 75.732L 328.537 94.914L 331.146 93.947L 333.755 102.006L 336.365 104.585L 338.974 88.466L 341.583 97.977L 344.193 74.926L 346.802 87.983L 349.411 92.496L 352.021 121.349L 354.630 121.833L 357.239 96.687L 359.849 94.269L 362.458 87.983L 365.067 101.845L 367.677 110.066L 370.286 105.069L 372.895 95.236L 375.505 83.792L 378.114 93.625L 380.723 103.135L 383.333 116.675L 385.942 96.042L 388.551 81.374L 391.161 95.075L 393.770 98.299L 396.379 97.493L 398.989 98.460L 401.598 132.955L 404.207 96.848L 406.817 81.374L 409.426 77.022L 412.035 84.437L 414.645 84.114L 417.254 76.699L 419.864 105.391L 422.473 105.875L 425.082 102.329L 427.692 108.132L 430.301 108.776L 432.910 90.723L 435.520 106.036L 438.129 90.078L 440.738 82.664L 443.348 89.917L 445.957 94.914L 448.566 111.033L 451.176 84.275L 453.785 99.911L 456.394 86.854L 459.004 97.493L 461.613 81.052L 464.222 93.463L 466.832 68.801L 469.441 88.628L 472.050 89.272L 474.660 105.553L 477.269 121.833L 479.878 101.845L 482.488 84.114L 485.097 118.770L 487.706 100.717L 490.316 86.693L 492.925 99.911L 495.534 87.822L 498.144 102.006L 500.753 81.858L 503.362 99.589L 505.972 82.986L 508.581 84.598L 511.190 111.355L 513.800 84.920L 516.409 79.923L 519.018 102.974L 521.628 70.413L 524.237 74.765L 526.846 78.634L 529.456 92.819L 532.065 82.180L 534.675 96.526L 537.284 74.120L 539.893 80.084L 542.503 86.532L 545.112 68.640L 547.721 60.580L 550.331 71.058L 552.940 81.213L 555.549 83.792L 558.159 84.114L 560.768 76.861L 563.377 72.831L 565.987 77.344L 568.596 64.610L 571.205 98.783L 573.815 68.479L 576.424 75.732L 579.033 78.634L 581.643 79.923L 584.252 85.081L 586.861 63.482L 589.471 74.282L 592.080 89.434L 594.689 74.604L 597.299 82.180L 599.908 72.670L 602.517 68.318L 605.127 69.446L 607.736 73.959L 610.345 64.449L 612.955 79.923L 615.564 71.058L 618.173 87.822L 620.783 73.153L 623.392 73.476L 626.001 84.598L 628.611 80.084L 631.220 81.052L 633.829 83.147L 636.439 80.729L 639.048 76.377L 641.657 96.687L 644.267 79.440L 646.876 80.246L 649.486 77.022L 652.095 76.861L 654.704 82.502L 657.314 66.544L 659.923 74.926L 662.532 73.959L 665.142 90.884L 667.751 76.216L 670.360 89.272L 672.970 76.699L 675.579 81.374L 678.188 82.341L 680.798 86.854L 683.407 86.371L 686.016 77.022L 688.626 65.739L 691.235 72.025L 693.844 76.055L 696.454 79.601L 699.063 85.887L 701.672 52.037L 704.282 53.327L 706.891 91.207L 709.500 73.798L 712.110 66.867L 714.719 73.153L 717.328 80.729L 719.938 77.828L 722.547 37.853L 725.156 49.297L 727.766 75.571L 730.375 52.682L 732.984 44.945L 735.594 71.219L 738.203 62.192L 740.812 61.386L 743.422 47.846L 746.031 49.458L 748.640 51.715L 751.250 58.001L 753.859 31.727L 756.468 47.846L 759.078 34.790L 761.687 33.500"
                      style="stroke-width: 2; stroke-linecap: round; stroke-linejoin: round; "
                      stroke="rgb(100,225,213)"/>
                <path fill="none"
                      d="M 75.431 326.706L 78.040 350.563L 80.649 421.486L 83.259 337.345L 85.868 334.766L 88.477 338.312L 91.087 322.515L 93.696 317.035L 96.305 390.538L 98.915 350.240L 101.524 376.031L 104.133 325.094L 106.743 330.252L 109.352 366.037L 111.961 337.022L 114.571 341.858L 117.180 336.700L 119.789 342.825L 122.399 389.248L 125.008 359.912L 127.617 359.912L 130.227 354.753L 132.836 343.792L 135.445 342.825L 138.055 325.094L 140.664 311.877L 143.273 340.246L 145.883 341.536L 148.492 332.509L 151.101 318.324L 156.320 346.694L 158.929 353.142L 161.539 360.234L 164.148 354.431L 166.757 370.550L 169.367 341.536L 171.976 348.951L 174.585 335.411L 177.195 339.279L 179.804 350.563L 182.413 342.503L 185.023 347.016L 187.632 342.503L 190.242 332.832L 192.851 338.634L 195.460 341.213L 198.070 333.476L 200.679 328.318L 203.288 333.476L 205.898 334.443L 208.507 330.897L 211.116 331.220L 213.726 333.799L 216.335 322.838L 218.944 331.864L 221.554 336.055L 224.163 340.891L 226.772 361.846L 229.382 379.577L 231.991 384.735L 234.600 386.669L 237.210 380.544L 239.819 358.300L 242.428 363.135L 245.038 374.419L 247.647 384.090L 250.256 382.801L 252.866 355.398L 255.475 370.228L 258.084 362.168L 260.694 347.016L 263.303 343.792L 265.912 358.944L 268.522 332.187L 271.131 337.345L 273.740 338.312L 276.350 323.805L 278.959 344.437L 281.568 351.852L 284.178 333.154L 286.787 361.523L 289.396 367.649L 292.006 349.595L 294.615 345.082L 297.224 369.583L 299.834 359.589L 302.443 369.905L 305.053 365.714L 307.662 361.846L 310.271 356.365L 312.881 359.912L 315.490 349.273L 318.099 344.437L 320.709 361.201L 323.318 354.753L 325.927 332.187L 328.537 347.016L 331.146 350.563L 333.755 350.563L 336.365 353.142L 338.974 344.115L 341.583 346.694L 344.193 348.628L 346.802 343.148L 349.411 346.372L 352.021 349.918L 354.630 357.655L 357.239 346.694L 359.849 341.858L 362.458 351.207L 365.067 354.753L 367.677 364.103L 370.286 346.372L 372.895 350.563L 375.505 344.115L 378.114 340.569L 380.723 335.733L 383.333 341.858L 385.942 336.055L 388.551 343.470L 391.161 346.049L 393.770 343.792L 396.379 338.634L 398.989 336.055L 401.598 354.431L 404.207 347.339L 406.817 332.509L 409.426 323.160L 412.035 344.437L 414.645 346.049L 417.254 341.213L 419.864 345.727L 422.473 350.563L 425.082 357.333L 427.692 352.497L 430.301 351.530L 432.910 352.819L 435.520 347.016L 438.129 339.602L 440.738 350.885L 443.348 349.273L 445.957 347.661L 448.566 347.983L 451.176 344.760L 453.785 345.082L 456.394 343.148L 459.004 340.569L 461.613 344.115L 464.222 337.022L 466.832 333.799L 469.441 332.509L 472.050 340.246L 474.660 342.825L 477.269 347.016L 479.878 342.503L 482.488 337.667L 485.097 351.530L 487.706 343.792L 490.316 344.115L 492.925 342.825L 495.534 344.115L 498.144 344.437L 500.753 340.246L 503.362 330.897L 505.972 330.897L 508.581 342.503L 511.190 349.273L 513.800 345.727L 516.409 337.667L 519.018 338.312L 521.628 331.542L 524.237 336.700L 526.846 336.378L 529.456 333.476L 532.065 332.832L 534.675 326.384L 537.284 333.154L 539.893 329.608L 542.503 342.181L 545.112 329.608L 547.721 326.706L 550.331 327.029L 552.940 338.957L 555.549 329.608L 558.159 333.154L 560.768 332.187L 563.377 327.351L 565.987 322.193L 568.596 325.417L 571.205 325.417L 573.815 325.094L 576.424 326.384L 579.033 325.417L 581.643 322.515L 584.252 331.220L 586.861 327.996L 589.471 324.127L 592.080 325.739L 594.689 330.897L 597.299 337.990L 599.908 329.608L 602.517 329.285L 605.127 321.871L 607.736 331.864L 610.345 329.608L 612.955 340.891L 615.564 326.384L 618.173 325.094L 620.783 326.384L 623.392 331.220L 626.001 324.127L 628.611 325.739L 631.220 322.193L 633.829 336.700L 636.439 332.832L 639.048 330.575L 641.657 327.351L 644.267 333.154L 646.876 330.575L 649.486 327.351L 652.095 330.575L 654.704 333.799L 657.314 319.292L 659.923 334.766L 662.532 326.062L 665.142 338.634L 667.751 322.515L 670.360 327.673L 672.970 326.384L 675.579 318.324L 678.188 312.199L 680.798 329.285L 683.407 316.712L 686.016 327.673L 688.626 328.641L 691.235 323.160L 693.844 318.002L 696.454 311.232L 699.063 320.259L 701.672 310.265L 704.282 311.877L 706.891 322.838L 709.500 321.871L 712.110 316.390L 714.719 306.396L 717.328 316.390L 719.938 311.232L 722.547 300.916L 725.156 308.331L 727.766 311.232L 730.375 304.462L 732.984 299.304L 735.594 300.593L 738.203 307.363L 740.812 295.113L 743.422 300.593L 746.031 294.146L 748.640 303.817L 751.250 301.238L 753.859 295.113L 756.468 300.916L 759.078 301.238L 761.687 298.014"
                      style="stroke-width: 2; stroke-linecap: round; stroke-linejoin: round; "
                      stroke="rgb(226,215,94)"/>
            </g>
            <rect fill="rgb(255,255,255)" x="629.39453125" width="12" y="574"
                  height="18" fill-opacity="0.001"/>
            <rect fill="rgb(100,225,213)" x="631.39453125" width="8" y="580.5"
                  height="5"/>
            <rect fill="rgb(255,255,255)" x="641.39453125" width="61.130859375"
                  y="574" height="18" fill-opacity="0.001"/>
            <text x="643.39453125"
                  style="font-family: sans-serif; font-weight: normal; font-style: normal; font-size: 12px"
                  y="587.48">
                Alex Temp
            </text>
            <rect fill="rgb(255,255,255)" x="708.525390625" width="12" y="574"
                  height="18" fill-opacity="0.001"/>
            <rect fill="rgb(226,215,94)" x="710.525390625" width="8" y="580.5"
                  height="5"/>
            <rect fill="rgb(255,255,255)" x="720.525390625" width="71.474609375"
                  y="574" height="18" fill-opacity="0.001"/>
            <text x="722.525390625"
                  style="font-family: sans-serif; font-weight: normal; font-style: normal; font-size: 12px"
                  y="587.48">
                Global Temp
            </text>
            <rect fill="rgb(255,255,255)" x="0" width="4" y="0" height="4"
                  fill-opacity="0.001"/>
            <text x="2"
                  style="font-family: sans-serif; font-weight: normal; font-style: normal; font-size: 24px"
                  y="2"/>
        </g>
    </g>
    <g visibility="hidden" id="hiddenGroup"/>
</svg>